<?xml version="1.0" standalone="no"?><svg xmlns="http://www.w3.org/2000/svg" viewBox="0 0 1440 320"><path fill="#f1e3d3" fill-opacity="1" d="M0,160L40,186.7C80,213,160,267,240,288C320,309,400,299,480,288C560,277,640,267,720,234.7C800,203,880,149,960,144C1040,139,1120,181,1200,197.3C1280,213,1360,203,1400,197.3L1440,192L1440,320L1400,320C1360,320,1280,320,1200,320C1120,320,1040,320,960,320C880,320,800,320,720,320C640,320,560,320,480,320C400,320,320,320,240,320C160,320,80,320,40,320L0,320Z"></path></svg>